<svg id="Layer_1" data-name="Layer 1" xmlns="http://www.w3.org/2000/svg" viewBox="0 0 1200 1200"><defs><style>.cls-1,.cls-7{fill:#fff;}.cls-10,.cls-2{fill:#1aade0;}.cls-3{fill:#ccdce9;}.cls-4{fill:#7c8d9f;}.cls-5{fill:#51637b;}.cls-6{fill:#2b3f58;}.cls-7{font-size:184.54px;font-family:Nexa-Heavy, Nexa;font-weight:800;letter-spacing:0.2em;}.cls-8{letter-spacing:0.2em;}.cls-9{letter-spacing:0.2em;}.cls-10{font-size:99.17px;font-family:AntipastoPro-Extralight, Antipasto Pro;font-weight:200;letter-spacing:0.4em;}.cls-11{letter-spacing:0.39em;}.cls-12{letter-spacing:0.4em;}.cls-13{letter-spacing:0.38em;}</style></defs><path class="cls-1" d="M276.87,533.77c0,17.26,0,34.51,0,51.76,0,9.84,1.81,11.64,11.59,11.65,28.66,0,57.33.16,86,0a90.35,90.35,0,0,0,89.7-85.69c2.4-43.25-16.7-78-52.16-94.8-14.51-6.88-29.94-8.58-45.78-8.1-6.1.19-12.22.2-18.31,0-5.73-.18-8.36,2.47-8.36,8.05,0,5.84,0,11.68,0,17.52s2.82,8.68,8.86,8.58q13.94-.24,27.87,0a55.27,55.27,0,0,1,53.42,48.52c3.8,30.8-7.09,55-31.11,66.27-7.2,3.38-15.73,5-23.74,5.32-18.55.76-37.16,0-55.73.39-7.23.16-9-2.63-8.86-9.38.35-23.62.16-47.25.15-70.87,0-10.8-.7-11.65-11-11.56-24.89.21-22.4-3.41-22.46,22.5,0,13.28,0,26.55,0,39.82Z"/><rect class="cls-2" x="276" y="409.83" width="32.64" height="32.64"/><rect class="cls-3" x="220.65" y="409.83" width="32.64" height="32.64"/><rect class="cls-4" x="165.78" y="409.83" width="32.64" height="32.64"/><rect class="cls-5" x="115.16" y="409.83" width="32.64" height="32.64"/><rect class="cls-5" x="115.16" y="463.76" width="32.64" height="32.64"/><rect class="cls-4" x="165.78" y="462.34" width="32.64" height="32.64"/><rect class="cls-3" x="220.65" y="462.34" width="32.64" height="32.64"/><rect class="cls-3" x="220.65" y="515.79" width="32.64" height="32.64"/><rect class="cls-3" x="220.65" y="564.52" width="32.64" height="32.64"/><rect class="cls-4" x="165.78" y="516.27" width="32.64" height="32.64"/><rect class="cls-6" x="60.75" y="409.83" width="32.64" height="32.64"/><text class="cls-7" transform="translate(494.09 597.24)">igi<tspan class="cls-8" x="325.53" y="0">t</tspan><tspan class="cls-9" x="440.13" y="0">al</tspan></text><text class="cls-10" transform="translate(253.55 761.75)">s<tspan class="cls-11" x="75.87" y="0">t</tspan><tspan class="cls-12" x="138.34" y="0">ay acti</tspan><tspan class="cls-13" x="670.65" y="0">v</tspan><tspan x="751.03" y="0">e</tspan></text></svg>